<?xml version="1.0" encoding="UTF-8"?>
<svg version="1.1" xmlns="http://www.w3.org/2000/svg" width="1024" height="1024">
<path d="M0 0 C337.92 0 675.84 0 1024 0 C1024 337.92 1024 675.84 1024 1024 C686.08 1024 348.16 1024 0 1024 C0 686.08 0 348.16 0 0 Z " fill="#122235" transform="translate(0,0)"/>
<path d="M0 0 C-2.62736754 2.73436441 -5.30509313 5.03104977 -8.375 7.25 C-15.90470843 13.04874098 -22.1494026 21.49789414 -24 31 C-24.94243512 44.720102 -21.83016956 53.70791487 -14 65 C-13.53722656 65.6703125 -13.07445312 66.340625 -12.59765625 67.03125 C-1.44417015 81.40534759 17.54225654 89.39780024 33.46044922 96.96405029 C51.13973983 105.37591628 67.20454191 113.87282651 81 128 C82.13501953 129.12148438 82.13501953 129.12148438 83.29296875 130.265625 C89.70523047 136.96315175 96.74821599 146.62043532 98 156 C98.66 156 99.32 156 100 156 C100.16822266 154.92298828 100.16822266 154.92298828 100.33984375 153.82421875 C104.46540049 136.17464759 121.95751899 120.80360458 136.7421875 111.52734375 C147.73444527 104.88478307 159.28017368 99.24180639 170.91162109 93.82128906 C191.09649083 84.39569657 210.61927221 73.10359005 220 51.8125 C223.38242672 42.09235224 223.89136603 32.01897589 219.5 22.5625 C214.45529128 13.86391347 208.30481649 7.7766276 199.90625 2.3125 C199.2771875 1.879375 198.648125 1.44625 198 1 C198 0.67 198 0.34 198 0 C203.28557228 -0.23278427 207.75588032 0.49637695 212.75 2.125 C213.4502832 2.3523584 214.15056641 2.5797168 214.87207031 2.81396484 C229.21221694 7.64775911 241.49758475 16.27138084 248.9140625 29.7109375 C253.75037139 39.90545911 255.16779081 53.82568226 251.875 64.75 C241.43632212 90.750927 215.89503435 104.44102733 191.484375 114.96582031 C184.89956819 117.76971061 178.29502673 120.52438517 171.6640625 123.21728516 C138.6939927 136.67544654 114.38693181 154.80557073 100 188 C99.34 188 98.68 188 98 188 C97.57589844 186.96101562 97.15179688 185.92203125 96.71484375 184.8515625 C81.68947791 148.78721843 51.6067436 133.71998849 17.23583984 119.35595703 C-17.47735085 104.80962678 -17.47735085 104.80962678 -32 93 C-33.30904297 91.93652344 -33.30904297 91.93652344 -34.64453125 90.8515625 C-44.8228536 82.15344595 -53.33297897 70.60833493 -55 57 C-55.88396513 41.70060351 -53.05050011 31.24420965 -43.48046875 19.06640625 C-32.9912293 7.56807541 -15.70870247 -1.37795636 0 0 Z " fill="#DCB75A" transform="translate(413,380)"/>
<path d="M0 0 C0.66636333 -0.00467997 1.33272666 -0.00935994 2.01928282 -0.01418173 C4.24487116 -0.02611663 6.46984201 -0.01668089 8.69543457 -0.00723267 C10.29395405 -0.01129905 11.89247071 -0.01664131 13.49098206 -0.02316284 C17.82773041 -0.03683431 22.16426454 -0.03153852 26.50101662 -0.02202559 C31.04039714 -0.01442812 35.57975938 -0.02147484 40.11914062 -0.02618408 C47.74209891 -0.03164138 55.36496999 -0.02445071 62.98791504 -0.01016235 C71.79995255 0.00616412 80.61178183 0.00087559 89.4238143 -0.01564157 C96.99082773 -0.02925718 104.55777848 -0.03117573 112.12480021 -0.02332556 C116.64373596 -0.01864946 121.16257384 -0.01802248 125.6815033 -0.02793503 C129.93001995 -0.0366035 134.17826823 -0.03058503 138.42675591 -0.01325226 C139.98561088 -0.00928677 141.54448846 -0.01042254 143.10333443 -0.01704025 C145.23203593 -0.02524371 147.35987855 -0.01494981 149.48852539 0 C151.27489788 0.00169662 151.27489788 0.00169662 153.0973587 0.00342751 C158.40959115 0.64071805 161.78751164 3.43037829 165.2442627 7.38095093 C167.04703117 12.78925634 166.51427214 18.59620942 166.5567627 24.25595093 C166.5857666 25.53598999 166.61477051 26.81602905 166.64465332 28.13485718 C166.65303223 29.36848999 166.66141113 30.6021228 166.67004395 31.87313843 C166.69191772 33.56479126 166.69191772 33.56479126 166.7142334 35.2906189 C166.14106494 39.05953646 164.87923091 40.67863722 162.2442627 43.38095093 C158.44984836 45.48266633 155.22141846 45.60022908 150.9317627 45.50595093 C149.86312988 45.48790405 148.79449707 45.46985718 147.69348145 45.45126343 C146.48111816 45.41645874 146.48111816 45.41645874 145.2442627 45.38095093 C145.2442627 41.75095093 145.2442627 38.12095093 145.2442627 34.38095093 C99.0442627 34.38095093 52.8442627 34.38095093 5.2442627 34.38095093 C5.2442627 38.01095093 5.2442627 41.64095093 5.2442627 45.38095093 C-7.6521004 46.24198407 -7.6521004 46.24198407 -11.4432373 43.06845093 C-16.86886432 36.76299251 -16.12265507 31.61431749 -16.1307373 23.56845093 C-16.15522949 22.29679077 -16.17972168 21.02513062 -16.20495605 19.7149353 C-16.23782803 9.25616942 -16.23782803 9.25616942 -14.0447998 5.68173218 C-9.60896577 1.2231891 -6.2756522 0.00596033 0 0 Z " fill="#E7C46A" transform="translate(436.7557373046875,414.6190490722656)"/>
<path d="M0 0 C2.44638573 3.01697132 3.98390579 6.02362163 5.5625 9.5625 C14.238649 27.1290239 31.40692033 37.18065866 49.38671875 43.31860352 C64.89919615 48.33415091 80.99686278 51.50039269 96.99511719 54.53369141 C118.75758571 58.68866091 140.42966359 64.67545443 157.1015625 79.921875 C162.73905062 85.03150843 167.01520987 87.54511927 174.94140625 87.23046875 C181.73332451 86.47008321 185.28626322 83.92453169 190.125 79.3125 C207.86408702 62.52633914 231.92449999 57.84567063 255.05859375 53.15625 C301.93353825 44.33812908 301.93353825 44.33812908 338 15 C340.7023421 10.17156866 342.88271074 5.10600303 345 0 C345.33 0 345.66 0 346 0 C346.92918889 14.55729254 344.4982758 26.80954073 335.15625 38.57421875 C314.80346537 61.47110146 281.74457392 65.47128119 252.8125 68.4375 C237.774069 70.06344257 223.47731843 72.18831324 209.09765625 77.01171875 C206 78 206 78 204 78 C203.814375 78.825 203.62875 79.65 203.4375 80.5 C200.11772988 88.58291855 194.29371614 92.85080722 186.74609375 96.87109375 C178.84092356 100.12087211 168.83366378 100.36566275 160.8125 97.4375 C153.95502102 94.28438265 147.86790097 90.6254037 145 83.4375 C142.66764043 78.83539454 139.3142814 77.33834581 134.625 75.6875 C118.32285367 70.43983874 101.19056265 68.85324842 84.25 67 C61.84336837 64.54592481 39.68504878 61.67506099 21 48 C20.36964844 47.56429687 19.73929687 47.12859375 19.08984375 46.6796875 C9.44821857 39.34414579 2.30054132 26.81554578 0.33984375 15.03515625 C-0.22155706 10.02126625 -0.15821646 5.03655735 0 0 Z " fill="#D9B55B" transform="translate(339,487)"/>
<path d="M0 0 C1.91859429 0.95188212 3.79965926 1.98124951 5.6484375 3.0625 C6.72996094 3.69075684 7.81148437 4.31901367 8.92578125 4.96630859 C10.07564254 5.64399927 11.22538002 6.32190006 12.375 7 C13.54786351 7.68494479 14.72104188 8.36935069 15.89453125 9.05322266 C23.44492701 13.46161864 30.96435231 17.92278841 38.4375 22.4609375 C40.87388406 23.96908511 40.87388406 23.96908511 43 25 C43.33 20.71 43.66 16.42 44 12 C50.27 12 56.54 12 63 12 C62.70802734 14.46339844 62.70802734 14.46339844 62.41015625 16.9765625 C61.34935684 28.90445372 61.34935684 28.90445372 66.03076172 39.39697266 C71.51321732 43.74339567 77.7468501 46.71411025 84.07666016 49.62988281 C87.94598486 51.44336621 91.54580293 53.58691507 95.1875 55.8125 C96.51846143 56.5929731 97.85055535 57.37151716 99.18359375 58.1484375 C109.23590042 64.06677461 119.17030318 70.18808032 129.13183594 76.25756836 C131.74913345 77.84759665 134.37226942 79.42728815 137 81 C136.34 81.33 135.68 81.66 135 82 C132.88842773 81.25341797 132.88842773 81.25341797 130.18359375 79.9921875 C129.13437744 79.51072266 128.08516113 79.02925781 127.00415039 78.53320312 C125.82715576 77.98599609 124.65016113 77.43878906 123.4375 76.875 C120.80265845 75.66744189 118.16365617 74.46918823 115.5234375 73.2734375 C114.7955452 72.94353821 114.06765289 72.61363892 113.31770325 72.27374268 C102.79974527 67.52883676 92.17426292 63.02995003 81.5625 58.5 C79.41240137 57.58137729 77.26233619 56.66267629 75.11230469 55.74389648 C71.96255489 54.39791976 68.81279483 53.05196771 65.6628418 51.70646667 C58.5347335 48.66037755 51.41486763 45.59599221 44.3046875 42.50830078 C41.93589549 41.47962855 39.56613813 40.45317578 37.1953125 39.42919922 C31.84493323 37.11678616 26.504944 34.78525677 21.18785095 32.39741516 C18.60308308 31.23938792 16.01263602 30.09443246 13.42129517 28.95120239 C11.62199687 28.15144533 9.8307251 27.33370525 8.03979492 26.51538086 C6.95545166 26.0385083 5.8711084 25.56163574 4.75390625 25.0703125 C3.80845947 24.64508301 2.8630127 24.21985352 1.88891602 23.78173828 C-4.29482262 22.10842373 -9.6137955 24.4147355 -15.20703125 26.9921875 C-16.21869354 27.44490524 -16.21869354 27.44490524 -17.25079346 27.9067688 C-18.69348886 28.55335561 -20.13444121 29.20384356 -21.57376099 29.85791016 C-25.37977889 31.5870363 -29.19882124 33.28703894 -33.015625 34.9921875 C-33.78024551 35.33481628 -34.54486603 35.67744507 -35.33265686 36.03045654 C-42.20675705 39.10677545 -49.12136151 42.07768993 -56.0625 45 C-57.11775879 45.4448877 -58.17301758 45.88977539 -59.26025391 46.34814453 C-64.51806837 48.55761189 -69.78730293 50.73661012 -75.06933594 52.88745117 C-81.32281744 55.43396456 -87.46458247 58.11159859 -93.56079102 61.0222168 C-101.49126918 64.76753505 -109.58885566 68.14106275 -117.66333008 71.5612793 C-124.7215958 74.55140857 -124.7215958 74.55140857 -131.69042969 77.74169922 C-132.86250977 78.30002441 -134.03458984 78.85834961 -135.2421875 79.43359375 C-136.30034668 79.94849365 -137.35850586 80.46339355 -138.44873047 80.99389648 C-139.71160889 81.49191772 -139.71160889 81.49191772 -141 82 C-141.66 81.67 -142.32 81.34 -143 81 C-142.5145874 80.7097998 -142.0291748 80.41959961 -141.52905273 80.12060547 C-131.53537489 74.14279561 -121.56324871 68.13205474 -111.625 62.0625 C-96.59184064 52.8919315 -81.42453666 43.95630709 -66.17163086 35.15673828 C-59.27699455 31.17412673 -52.42344212 27.12372243 -45.57373047 23.06445312 C-37.44673843 18.25247469 -29.28888103 13.49433816 -21.1184082 8.7565918 C-19.70241333 7.93348511 -19.70241333 7.93348511 -18.2578125 7.09375 C-17.3596582 6.57425781 -16.46150391 6.05476563 -15.53613281 5.51953125 C-12.54897779 3.72976875 -9.68098304 1.79072665 -6.84716797 -0.23242188 C-4.18723155 -1.33774042 -2.72942298 -0.85028121 0 0 Z " fill="#E4C46C" transform="translate(515,283)"/>
<path d="M0 0 C6.579375 -0.0825 13.15875 -0.165 19.9375 -0.25 C23.02532837 -0.30462402 23.02532837 -0.30462402 26.17553711 -0.36035156 C27.8344621 -0.37205028 29.49339871 -0.38223929 31.15234375 -0.390625 C31.99156372 -0.41108887 32.83078369 -0.43155273 33.69543457 -0.45263672 C40.37392836 -0.45652013 46.67416926 0.92911047 51.71568298 5.58416748 C55.14381544 9.50613899 55.69745851 13.40413595 55.42578125 18.50390625 C54.41184621 24.44798417 51.5706561 29.08229477 47 33 C47.886875 33.20625 48.77375 33.4125 49.6875 33.625 C54.30806999 35.54297245 56.73914994 38.47829987 59 43 C59.5072965 48.55531248 59.76260422 53.41830236 57.3125 58.5 C51.67939019 64.58984844 46.22032642 67.55474253 37.82696533 68.1555481 C31.67593881 68.37404434 25.52804367 68.27164207 19.375 68.1875 C12.98125 68.125625 6.5875 68.06375 0 68 C0 45.56 0 23.12 0 0 Z " fill="#F6F8F7" transform="translate(273,640)"/>
<path d="M0 0 C0.71631592 0.18908936 1.43263184 0.37817871 2.1706543 0.57299805 C7.95474906 2.23924698 12.06207883 4.62104528 16.234375 8.9453125 C18.7312933 14.35530214 18.29743117 19.49907645 18.125 25.375 C18.10695313 26.5403125 18.08890625 27.705625 18.0703125 28.90625 C18.0233382 31.77168249 17.95766293 34.63541168 17.875 37.5 C14.575 36.84 11.275 36.18 7.875 35.5 C7.6275 33.9325 7.38 32.365 7.125 30.75 C6.2789622 26.50181021 5.49440118 24.13229177 1.875 21.5 C-2.95575397 18.27949735 -8.55937477 19.12810793 -14.21142578 19.12939453 C-16.35401172 19.12504263 -18.49450017 19.0887796 -20.63671875 19.05078125 C-30.58877053 18.93771795 -30.58877053 18.93771795 -39.125 23.5 C-42.16366331 27.24768475 -42.65998644 30.75686173 -43.125 35.5 C-46.425 35.5 -49.725 35.5 -53.125 35.5 C-53.3725 34.118125 -53.62 32.73625 -53.875 31.3125 C-54.8122618 27.143979 -55.94720973 24.49620225 -59.125 21.5 C-64.90332281 18.58417336 -71.1066846 19.12794533 -77.41723633 19.12939453 C-79.55305639 19.12501935 -81.68681026 19.08865527 -83.82226562 19.05078125 C-85.19270133 19.04491223 -86.56314677 19.04094341 -87.93359375 19.0390625 C-89.16907959 19.03084473 -90.40456543 19.02262695 -91.67749023 19.01416016 C-95.76084583 19.58960649 -97.91579097 20.96370404 -101.125 23.5 C-103.73500207 26.98000276 -103.7037947 31.28794699 -104.125 35.5 C-107.425 36.16 -110.725 36.82 -114.125 37.5 C-114.2061135 33.62457723 -114.2655605 29.75086118 -114.3125 25.875 C-114.33763672 24.78058594 -114.36277344 23.68617188 -114.38867188 22.55859375 C-114.45607461 15.14429281 -113.89561067 10.48373457 -108.6875 4.875 C-100.66694102 -1.27343834 -88.80736665 -2.74617367 -79.125 -4.5 C-77.99449219 -4.70753906 -76.86398437 -4.91507812 -75.69921875 -5.12890625 C-50.26000347 -9.036326 -24.74348875 -6.57108711 0 0 Z " fill="#E9C96F" transform="translate(560.125,353.5)"/>
<path d="M0 0 C13 0 13 0 17.3125 3.8125 C18.58288856 5.51161182 19.81191381 7.24235406 21 9 C22.20708375 10.64675002 23.4154732 12.29254355 24.625 13.9375 C25.27082031 14.845 25.91664063 15.7525 26.58203125 16.6875 C31.34697368 23.30024399 36.47330179 29.65484999 41.5012207 36.06811523 C43.02238979 38.02885981 44.51102355 40.01469806 46 42 C46.33 28.14 46.66 14.28 47 0 C51.62 0 56.24 0 61 0 C61 22.44 61 44.88 61 68 C48 68 48 68 44.9296875 65.6484375 C44.25164063 64.56820312 43.57359375 63.48796875 42.875 62.375 C42.07105051 61.17181142 41.26498535 59.97003436 40.45703125 58.76953125 C40.05693848 58.1451416 39.6568457 57.52075195 39.24462891 56.87744141 C37.20065443 53.79423943 34.87700184 50.94470984 32.5625 48.0625 C31.65006057 46.9031152 30.73860962 45.74295182 29.828125 44.58203125 C27.84985717 42.07024323 25.85790134 39.5699124 23.859375 37.07421875 C23.34947021 36.43411865 22.83956543 35.79401855 22.31420898 35.13452148 C21.33074921 33.90036021 20.34341743 32.66927217 19.35180664 31.44165039 C16 27.2250199 16 27.2250199 16 25 C15.34 25 14.68 25 14 25 C14 38.86 14 52.72 14 67 C9.38 67 4.76 67 0 67 C0 44.89 0 22.78 0 0 Z " fill="#FAFBFA" transform="translate(535,640)"/>
<path d="M0 0 C6.12641513 4.84387589 9.91843894 10.68207156 11.2890625 18.4140625 C11.76444557 26.49557473 9.39034779 32.93035704 4.77734375 39.52734375 C2.32219204 41.99710946 -0.18665643 43.8363365 -3.22265625 45.52734375 C-4.11339844 46.06230469 -5.00414062 46.59726562 -5.921875 47.1484375 C-10.08764173 48.88869272 -13.56415518 49.06464483 -18.03515625 49.02734375 C-18.83542236 49.02089844 -19.63568848 49.01445313 -20.46020508 49.0078125 C-29.15693832 48.73833876 -34.12561957 45.95777694 -40.09765625 39.71484375 C-45.39465123 33.11510754 -46.89113816 27.00332925 -46.625 18.55078125 C-45.50828016 10.15911956 -40.97051986 4.39556741 -34.53515625 -0.84375 C-23.85927769 -8.36375229 -10.61811869 -7.03520342 0 0 Z " fill="#F7F7F6" transform="translate(386.22265625,659.47265625)"/>
<path d="M0 0 C4.70161035 3.64552509 8.17133345 8.02256052 9.99609375 13.71484375 C11.04759058 22.20983126 10.96840307 30.48372725 5.99609375 37.71484375 C1.58434214 43.31050846 -4.01701886 47.85036892 -11.20800781 49.09692383 C-13.48690105 49.24913237 -15.7207606 49.26159759 -18.00390625 49.21484375 C-18.75929688 49.2303125 -19.5146875 49.24578125 -20.29296875 49.26171875 C-28.06751708 49.20828543 -34.37042282 46.03535587 -40.00390625 40.71484375 C-46.20778101 32.38392621 -46.98103735 24.82919014 -46.00390625 14.71484375 C-43.84663476 6.78739462 -38.97058895 1.82632862 -32.00390625 -2.28515625 C-21.31458631 -7.61079608 -9.91429798 -6.35829246 0 0 Z " fill="#F7F7F7" transform="translate(450.00390625,659.28515625)"/>
<path d="M0 0 C0.94781698 2.84345095 1.09563291 4.45518475 1.02734375 7.38671875 C1.01509766 8.24330078 1.00285156 9.09988281 0.99023438 9.98242188 C0.95545715 11.76636473 0.91648883 13.55023149 0.87304688 15.33398438 C0.69729665 29.17689902 6.01557328 40.76569998 15.625 50.70703125 C16.40875 51.46371094 17.1925 52.22039062 18 53 C18.680625 53.66386719 19.36125 54.32773437 20.0625 55.01171875 C33.99310413 67.2756256 52.7734556 73.86038831 70 80 C132.29521381 102.34011768 132.29521381 102.34011768 153 130 C152.67 130.66 152.34 131.32 152 132 C150.77990234 130.96552734 150.77990234 130.96552734 149.53515625 129.91015625 C130.69555787 114.30682503 109.12107935 106.57864997 85.65478516 100.67871094 C28.72493342 86.12427027 28.72493342 86.12427027 11 67 C10.46890625 66.4740625 9.9378125 65.948125 9.390625 65.40625 C-0.70700103 54.86182636 -5.81352734 40.63636682 -6.4375 26.1875 C-6.22111832 17.65750626 -4.23066397 7.4703616 0 0 Z " fill="#D5AE53" transform="translate(346,427)"/>
<path d="M0 0 C6.2415714 7.30805839 6.52619555 18.31756738 6.28125 27.5234375 C4.87333381 44.92684602 -3.01954944 59.41782125 -16.25 70.6875 C-34.7783692 85.0900165 -57.81812604 91.11677079 -80.23046875 96.87109375 C-104.71787712 103.16829927 -126.61540323 110.64493609 -147 126 C-148.97968655 127.36966686 -150.98026294 128.68990028 -153 130 C-142.33470596 106.36043074 -112.74338579 93.63399762 -90 85 C-84.13158876 82.86238996 -78.24089615 80.78977012 -72.34561157 78.72763062 C-44.62472085 69.02915797 -17.19255405 58.96729341 -3.2265625 31.15234375 C-0.3537038 23.7689139 0.28376598 16.80862884 0.125 8.9375 C0.11597656 8.07189453 0.10695313 7.20628906 0.09765625 6.31445312 C0.07439723 4.20951221 0.03854008 2.10471658 0 0 Z " fill="#D5AE55" transform="translate(678,429)"/>
<path d="M0 0 C4.95 0 9.9 0 15 0 C15 12.54 15 25.08 15 38 C21.54430983 32.28226885 21.54430983 32.28226885 27.05761719 26.11621094 C30.81179439 21.68856384 33.80533418 18.79005207 39.7734375 18.23046875 C44.22678792 18.12526806 48.58056778 18.46966813 53 19 C47.17371096 26.15801225 40.5617015 32.52591766 34 39 C37.61684253 45.85952894 41.73202967 52.32142604 45.98950195 58.79467773 C48.82343099 63.11752749 51.48195066 67.48528565 54 72 C48.27921021 73.30899427 42.55767157 74.37088523 37 72 C30.88927602 66.22062157 26.88580363 58.37732759 23 51 C18.984434 52.86511166 18.984434 52.86511166 16 56 C15.62325482 58.79251583 15.39808059 61.38779201 15.3125 64.1875 C15.27833984 64.93708984 15.24417969 65.68667969 15.20898438 66.45898438 C15.12665706 68.30546838 15.06164719 70.15270994 15 72 C10.05 72 5.1 72 0 72 C0 48.24 0 24.48 0 0 Z " fill="#F4F5F4" transform="translate(471,636)"/>
<path d="M0 0 C7.64567096 -0.53653831 13.66729157 1.87438679 19.88671875 6.265625 C27.16943255 14.27942204 27.88671875 21.22130458 27.88671875 32.265625 C15.34671875 32.265625 2.80671875 32.265625 -10.11328125 32.265625 C-6.7563832 39.08978411 -6.7563832 39.08978411 -1.11328125 42.265625 C4.01824238 42.96379148 8.28275842 42.98316934 12.76171875 40.203125 C15.88671875 38.265625 15.88671875 38.265625 18.01171875 38.203125 C20.78199741 39.77294958 22.74034785 41.94038986 24.88671875 44.265625 C22.9630081 49.32223585 19.28020993 50.82622195 14.58203125 53.05078125 C7.03835718 55.53078404 -1.3652657 55.73647764 -8.98828125 53.375 C-16.15396063 49.74374356 -21.07953182 43.61094956 -24.11328125 36.265625 C-24.54801666 33.46200365 -24.59055914 30.72393831 -24.55078125 27.890625 C-24.54248291 27.13475098 -24.53418457 26.37887695 -24.52563477 25.60009766 C-24.2849871 17.68527297 -22.09895861 13.21793325 -16.73828125 7.453125 C-11.6879219 2.71571526 -6.75874778 0.84952837 0 0 Z " fill="#F7F7F7" transform="translate(633.11328125,653.734375)"/>
<path d="M0 0 C1.17825348 -0.0087616 2.35650696 -0.01752319 3.57046509 -0.02655029 C7.4496995 -0.0484847 11.32778604 -0.03401089 15.20703125 -0.01708984 C17.91171179 -0.01820467 20.61637216 -0.02530661 23.32104492 -0.03158569 C28.98336123 -0.04066194 34.64535061 -0.02874807 40.30761719 -0.00488281 C46.83804749 0.0223251 53.36769708 0.01350946 59.89810848 -0.01401484 C65.52219505 -0.03676319 71.14604769 -0.03987826 76.77016544 -0.02682149 C80.12175841 -0.01905796 83.47269265 -0.01988437 86.8243103 -0.03450394 C90.56309419 -0.04723417 94.30038921 -0.0278011 98.0390625 0 C99.13852203 -0.01012115 100.23798157 -0.02024231 101.37075806 -0.03067017 C109.06477937 0.07506362 114.11564315 1.75727028 119.60945129 7.23111534 C123.01953125 11.10860939 123.01953125 11.10860939 123.01953125 13.64697266 C73.84953125 13.64697266 24.67953125 13.64697266 -25.98046875 13.64697266 C-17.58558485 2.45379413 -13.34094941 -0.12281108 0 0 Z " fill="#E0C06B" transform="translate(462.98046875,394.35302734375)"/>
<path d="M0 0 C0.99 0.99 1.98 1.98 3 3 C1.35 5.64 -0.3 8.28 -2 11 C-4.71108863 10.5215726 -7.11995142 9.95257735 -9.6875 8.9375 C-14.12336406 7.68206678 -18.41311914 7.62855767 -23 8 C-24.29633621 9.06645115 -24.29633621 9.06645115 -24.0625 11.5625 C-24.041875 12.366875 -24.02125 13.17125 -24 14 C-19.65429096 15.68999796 -15.37060652 17.19780244 -10.875 18.4375 C-4.95990531 20.18204406 -0.34741894 22.68238591 3 28 C3.86880251 32.67274864 3.62891798 37.49008442 1.5625 41.8125 C-1.43431608 46.1287334 -4.96699492 48.52851339 -10 50 C-21.29418427 51.51684317 -31.40397884 50.39734744 -41 44 C-39.77472971 39.94718288 -38.30119506 36.55639236 -36 33 C-35.42894531 33.3609375 -34.85789062 33.721875 -34.26953125 34.09375 C-27.16468481 38.1601168 -21.11044144 38.82519026 -13 38 C-12.01 37.505 -12.01 37.505 -11 37 C-11.18828772 34.55519921 -11.18828772 34.55519921 -12 32 C-15.06420797 30.03776938 -18.28859539 29.39401641 -21.8125 28.625 C-27.79053118 27.1742339 -32.62761016 25.60962882 -36.875 20.9375 C-39.26399286 16.8231234 -39.63516098 12.64902547 -39 8 C-30.93363005 -7.53523101 -14.12971786 -6.07882826 0 0 Z " fill="#F5F6F5" transform="translate(708,658)"/>
<path d="M0 0 C4.62 0 9.24 0 14 0 C14 4.95 14 9.9 14 15 C18.62 15 23.24 15 28 15 C28 18.63 28 22.26 28 26 C23.38 26 18.76 26 14 26 C14.1400827 30.31275889 14.2867801 34.62511136 14.4375 38.9375 C14.47681641 40.16919922 14.51613281 41.40089844 14.55664062 42.66992188 C14.59853516 43.83974609 14.64042969 45.00957031 14.68359375 46.21484375 C14.72025146 47.29886475 14.75690918 48.38288574 14.79467773 49.49975586 C14.72364265 51.939263 14.72364265 51.939263 16 53 C19.8361222 53.14475933 23.32307787 53.17661508 27 52 C28.42258812 55.82320557 29.24042276 58.91281305 29 63 C22.88496767 66.33547218 16.90908094 66.96011752 10 66 C5.6449978 63.81002038 2.05055454 61.02879423 0.39672852 56.26074219 C-0.13384345 53.23729822 -0.11111901 50.33513455 -0.09765625 47.265625 C-0.09443359 45.97011719 -0.09121094 44.67460938 -0.08789062 43.33984375 C-0.07953598 41.97656183 -0.07107104 40.61328058 -0.0625 39.25 C-0.05748168 37.87109535 -0.05291935 36.49218896 -0.04882812 35.11328125 C-0.03704093 31.74214341 -0.02058635 28.37109372 0 25 C-2.31 25 -4.62 25 -7 25 C-7 21.7 -7 18.4 -7 15 C-4.69 15 -2.38 15 0 15 C0 10.05 0 5.1 0 0 Z " fill="#F6F7F7" transform="translate(724,642)"/>
<path d="M0 0 C0.66 0 1.32 0 2 0 C2.51046875 1.17755859 2.51046875 1.17755859 3.03125 2.37890625 C8.05320028 13.26425062 13.78827324 18.82155554 25 23 C25 23.66 25 24.32 25 25 C24.21496094 25.3403125 23.42992187 25.680625 22.62109375 26.03125 C11.73574938 31.05320028 6.17844446 36.78827324 2 48 C1.34 48 0.68 48 0 48 C-0.3403125 47.21496094 -0.680625 46.42992187 -1.03125 45.62109375 C-6.05320028 34.73574938 -11.78827324 29.17844446 -23 25 C-23 24.34 -23 23.68 -23 23 C-22.21496094 22.6596875 -21.42992187 22.319375 -20.62109375 21.96875 C-9.73574938 16.94679972 -4.17844446 11.21172676 0 0 Z " fill="#858D97" transform="translate(967,944)"/>
<path d="M0 0 C3.31015748 2.12047332 6.22464779 4.44929557 8 8 C9.18420294 18.71778611 9.18420294 18.71778611 6.765625 23.37890625 C3.77548644 26.92414479 1.49494347 28.65541865 -3.234375 29.30859375 C-8.07477614 29.55662673 -11.18632576 29.43073251 -15 26.25 C-18.51534435 22.90366259 -20.2881186 19.63565054 -20.4375 14.75 C-20.30757419 9.50099717 -18.45058651 5.89788476 -15 2 C-10.23866038 -1.57100471 -5.55625735 -1.77183943 0 0 Z " fill="#152539" transform="translate(374,667)"/>
<path d="M0 0 C3.79312338 2.17902832 6.36381779 4.93185604 8 9 C8.74473394 14.86115281 8.51540162 20.07843773 5 25 C1.47905697 28.26331306 -1.30393216 29.28814732 -6 29.5 C-10.70542792 29.28064922 -13.50678957 28.32280992 -17 25 C-19.82780488 20.09847155 -20.96329636 15.56084715 -20 10 C-18.34842792 5.1632532 -15.58176916 1.87274931 -10.9921875 -0.40234375 C-7.1771077 -1.54686769 -3.76500709 -1.19111133 0 0 Z " fill="#152539" transform="translate(438,667)"/>
<path d="M0 0 C3.37548805 -0.08122832 6.74900518 -0.14061118 10.125 -0.1875 C11.55199219 -0.22520508 11.55199219 -0.22520508 13.0078125 -0.26367188 C18.45215625 -0.32038379 22.30680747 -0.09630753 27 3 C29 5 29 5 29.375 8.375 C29 12 29 12 27.1875 14.375 C23.75782389 16.9227594 21.03791677 17.12160646 16.89453125 17.09765625 C15.91162109 17.09443359 14.92871094 17.09121094 13.91601562 17.08789062 C12.89185547 17.07951172 11.86769531 17.07113281 10.8125 17.0625 C9.77673828 17.05798828 8.74097656 17.05347656 7.67382812 17.04882812 C5.1158608 17.03704026 2.55792314 17.01910482 0 17 C0 11.39 0 5.78 0 0 Z " fill="#16273B" transform="translate(288,679)"/>
<path d="M0 0 C3.12291165 1.68012647 5.39164837 3.78329674 7 7 C7.52999351 10.78566792 7.83021253 14.44856036 5.98828125 17.890625 C2.73096207 21.92070158 0.32438892 22.84548796 -4.75 23.4375 C-9.08244257 23.35741788 -11.56267412 21.89633336 -14.640625 18.91015625 C-17.07875651 15.4841611 -17.52394661 12.12515708 -17 8 C-13.07758661 0.2952594 -8.20041201 -1.28608946 0 0 Z " fill="#192737" transform="translate(312,736)"/>
<path d="M0 0 C3.23006734 -0.1081697 6.45649754 -0.18739234 9.6875 -0.25 C11.05551758 -0.30027344 11.05551758 -0.30027344 12.45117188 -0.3515625 C16.76337037 -0.41428539 19.30811664 -0.40033503 23.10546875 1.796875 C25 4 25 4 25.625 7.5 C25 11 25 11 23.10546875 13.203125 C18.63092405 15.79216973 14.75513645 15.43623116 9.6875 15.25 C8.75615234 15.23195313 7.82480469 15.21390625 6.86523438 15.1953125 C4.57637851 15.14836161 2.28805473 15.07662323 0 15 C0 10.05 0 5.1 0 0 Z " fill="#132538" transform="translate(288,652)"/>
<path d="M0 0 C13.26315789 -0.36842105 13.26315789 -0.36842105 16.4375 1.21875 C18.44874686 3.51157143 18.42425163 4.68165944 18.25 7.6875 C18.21390625 8.49574219 18.1778125 9.30398438 18.140625 10.13671875 C18.07101562 11.05904297 18.07101562 11.05904297 18 12 C16.02 12.99 16.02 12.99 14 14 C15.65 16.97 17.3 19.94 19 23 C17.68 23 16.36 23 15 23 C11 17.88888889 11 17.88888889 11 15 C8.36 15 5.72 15 3 15 C3 17.64 3 20.28 3 23 C2.01 23 1.02 23 0 23 C0 15.41 0 7.82 0 0 Z " fill="#E1BF67" transform="translate(350,736)"/>
<path d="M0 0 C2.0625 -0.061875 4.125 -0.12375 6.25 -0.1875 C7.99023438 -0.23970703 7.99023438 -0.23970703 9.765625 -0.29296875 C13.27047434 0.02449949 14.66303527 0.38809825 17 3 C17.390625 5.26171875 17.390625 5.26171875 17.25 7.6875 C17.21390625 8.49574219 17.1778125 9.30398438 17.140625 10.13671875 C17.07101562 11.05904297 17.07101562 11.05904297 17 12 C15.02 12.99 15.02 12.99 13 14 C14.65 16.97 16.3 19.94 18 23 C16.68 23 15.36 23 14 23 C13.2575 21.2984375 13.2575 21.2984375 12.5 19.5625 C11.17458751 17.1805993 10.569875 16.1914084 7.953125 15.3125 C5.49839194 14.99817869 5.49839194 14.99817869 2 15 C2 17.64 2 20.28 2 23 C1.34 23 0.68 23 0 23 C0 15.41 0 7.82 0 0 Z " fill="#ECCA70" transform="translate(477,736)"/>
<path d="M0 0 C0.99 0 1.98 0 3 0 C4.98 5.61 6.96 11.22 9 17 C10.98 11.39 12.96 5.78 15 0 C16.32 0 17.64 0 19 0 C20.65 5.28 22.3 10.56 24 16 C25.7149101 12.5701798 26.94130926 9.37998493 28.125 5.75 C28.47820313 4.67234375 28.83140625 3.5946875 29.1953125 2.484375 C29.46085938 1.66453125 29.72640625 0.8446875 30 0 C30.99 0 31.98 0 33 0 C31.90369008 5.39019046 30.60853687 10.70248841 29.125 16 C28.81820312 17.11375 28.51140625 18.2275 28.1953125 19.375 C27 22 27 22 24.8671875 22.875 C24.25101563 22.91625 23.63484375 22.9575 23 23 C22.18167278 21.10667466 21.37057732 19.21022267 20.5625 17.3125 C20.11003906 16.25675781 19.65757812 15.20101562 19.19140625 14.11328125 C18.14552545 11.38027471 17.46479252 8.87957663 17 6 C14.85289032 11.62338249 12.86763181 17.27789404 11 23 C9.12011719 22.77514648 9.12011719 22.77514648 7 22 C5.90332031 20.08227539 5.90332031 20.08227539 5.078125 17.59765625 C4.77519531 16.70755859 4.47226562 15.81746094 4.16015625 14.90039062 C3.85980469 13.96388672 3.55945313 13.02738281 3.25 12.0625 C2.93417969 11.12986328 2.61835937 10.19722656 2.29296875 9.23632812 C0 2.37231128 0 2.37231128 0 0 Z " fill="#D0B066" transform="translate(643,736)"/>
<path d="M0 0 C1.32 0 2.64 0 4 0 C7.3 7.26 10.6 14.52 14 22 C13.01 22.33 12.02 22.66 11 23 C10.62875 22.18789063 10.2575 21.37578125 9.875 20.5390625 C8.2258645 17.73343755 8.2258645 17.73343755 5.1875 17.3359375 C4.135625 17.34882812 3.08375 17.36171875 2 17.375 C0.4221875 17.35566406 0.4221875 17.35566406 -1.1875 17.3359375 C-4.22687181 17.72153287 -4.22687181 17.72153287 -5.75 20.5390625 C-6.1625 21.35117187 -6.575 22.16328125 -7 23 C-7.66 23 -8.32 23 -9 23 C-8.43997169 17.43527426 -6.3654757 13.0732061 -3.9375 8.125 C-3.37192383 6.949375 -3.37192383 6.949375 -2.79492188 5.75 C-1.87006766 3.83004947 -0.93596022 1.914561 0 0 Z " fill="#D1B366" transform="translate(576,736)"/>
<path d="M0 0 C1.32 0 2.64 0 4 0 C5.50585523 3.45581315 7.00368289 6.91504753 8.5 10.375 C8.92925781 11.35984375 9.35851562 12.3446875 9.80078125 13.359375 C10.40986328 14.77089844 10.40986328 14.77089844 11.03125 16.2109375 C11.40830078 17.08024902 11.78535156 17.94956055 12.17382812 18.84521484 C13 21 13 21 13 23 C12.01 23 11.02 23 10 23 C9.34 21.35 8.68 19.7 8 18 C3.71 17.67 -0.58 17.34 -5 17 C-5.66 18.98 -6.32 20.96 -7 23 C-7.99 23 -8.98 23 -10 23 C-7.60292686 14.82175048 -3.91141228 7.53348722 0 0 Z " fill="#C7AA62" transform="translate(687,736)"/>
<path d="M0 0 C1.91503906 0.16235352 1.91503906 0.16235352 4 1 C5.28027344 2.91772461 5.28027344 2.91772461 6.359375 5.40234375 C6.75253906 6.29244141 7.14570312 7.18253906 7.55078125 8.09960938 C7.94652344 9.03611328 8.34226562 9.97261719 8.75 10.9375 C9.16121094 11.87013672 9.57242188 12.80277344 9.99609375 13.76367188 C13 20.66467245 13 20.66467245 13 23 C12.01 23 11.02 23 10 23 C9.34 21.02 8.68 19.04 8 17 C3.71 17 -0.58 17 -5 17 C-5.66 18.98 -6.32 20.96 -7 23 C-7.99 23 -8.98 23 -10 23 C-8.45594283 18.07298339 -6.51874213 13.40355176 -4.4375 8.6875 C-3.96280273 7.59598633 -3.96280273 7.59598633 -3.47851562 6.48242188 C-1.12828333 1.12828333 -1.12828333 1.12828333 0 0 Z " fill="#D3B165" transform="translate(629,736)"/>
<path d="M0 0 C3.68623011 1.61272567 4.75355 2.630325 7 6 C7 7.65 7 9.3 7 11 C-0.92 11 -8.84 11 -17 11 C-15.8000805 3.80048298 -15.8000805 3.80048298 -11.9453125 0.9140625 C-8.08812565 -0.8983506 -4.13504365 -0.64200177 0 0 Z " fill="#142539" transform="translate(640,666)"/>
<path d="M0 0 C1.15822266 -0.02900391 2.31644531 -0.05800781 3.50976562 -0.08789062 C4.61900391 -0.09626953 5.72824219 -0.10464844 6.87109375 -0.11328125 C7.89001709 -0.12786377 8.90894043 -0.14244629 9.95874023 -0.1574707 C12.5625 0.3125 12.5625 0.3125 14.41821289 2.33911133 C14.79582764 2.99032959 15.17344238 3.64154785 15.5625 4.3125 C14.69625 4.580625 13.83 4.84875 12.9375 5.125 C9.57367979 6.18584082 9.57367979 6.18584082 6.8125 7.9375 C2.31162435 9.84171662 -1.62093302 10.14058486 -6.4375 9.3125 C-9.33850372 7.94578164 -11.02092079 6.52341289 -13.4375 4.3125 C-13.7675 3.3225 -14.0975 2.3325 -14.4375 1.3125 C-10.20179299 -0.80535351 -4.65386657 0.03871769 0 0 Z " fill="#1A2A3D" transform="translate(638.4375,687.6875)"/>
<path d="M0 0 C3.12291165 1.68012647 5.39164837 3.78329674 7 7 C7.52999351 10.78566792 7.83021253 14.44856036 5.98828125 17.890625 C2.73096207 21.92070158 0.32438892 22.84548796 -4.75 23.4375 C-9.08244257 23.35741788 -11.56267412 21.89633336 -14.640625 18.91015625 C-17.07875651 15.4841611 -17.52394661 12.12515708 -17 8 C-13.07758661 0.2952594 -8.20041201 -1.28608946 0 0 Z M-13 6 C-14.3899408 8.7798816 -14.18488204 10.9186326 -14 14 C-12.79293121 17.34265205 -12.07943151 17.94704566 -9 20 C-4.79687211 20.66568876 -1.17929894 20.66155794 2.5625 18.5625 C4.71900637 14.718293 5.00778483 11.29072027 4 7 C2.23092649 4.37062361 0.87588457 3.65097077 -2 2 C-7.07100219 1.06859143 -9.37670588 2.48022857 -13 6 Z " fill="#CEAD63" transform="translate(312,736)"/>
<path d="M0 0 C0.99 0 1.98 0 3 0 C3.13530844 3.06398451 3.2342407 6.12197126 3.3125 9.1875 C3.35439453 10.05181641 3.39628906 10.91613281 3.43945312 11.80664062 C3.52578511 16.31317028 3.47952387 18.34963027 0.73046875 22.078125 C-2.61257398 24.43116795 -4.1325434 24.68252557 -8.06640625 24.4296875 C-11.14220664 23.7461763 -12.87256659 22.25636877 -15 20 C-16.25433458 16.23699626 -16.10695422 12.72789091 -16.0625 8.8125 C-16.05798828 8.06291016 -16.05347656 7.31332031 -16.04882812 6.54101562 C-16.03706354 4.69397617 -16.01912865 2.84697787 -16 1 C-15.01 1 -14.02 1 -13 1 C-12.95101563 2.12019531 -12.90203125 3.24039063 -12.8515625 4.39453125 C-12.77652144 5.86721203 -12.70097418 7.33986707 -12.625 8.8125 C-12.5940625 9.55048828 -12.563125 10.28847656 -12.53125 11.04882812 C-12.32653852 14.81893115 -12.13566173 16.79650741 -10 20 C-7.2572492 20.47114738 -4.80441103 20.17805784 -2 20 C-0.45049732 18.45049732 -0.78344807 16.90009406 -0.68359375 14.74609375 C-0.64169922 13.89208984 -0.59980469 13.03808594 -0.55664062 12.15820312 C-0.51732422 11.26037109 -0.47800781 10.36253906 -0.4375 9.4375 C-0.39431641 8.53580078 -0.35113281 7.63410156 -0.30664062 6.70507812 C-0.20021858 4.47021515 -0.09820012 2.23523692 0 0 Z " fill="#CCAE66" transform="translate(466,735)"/>
<path d="M0 0 C0.99 0 1.98 0 3 0 C3.07347656 1.68029297 3.07347656 1.68029297 3.1484375 3.39453125 C3.22347856 4.86721203 3.29902582 6.33986707 3.375 7.8125 C3.4059375 8.55048828 3.436875 9.28847656 3.46875 10.04882812 C3.67346148 13.81893115 3.86433827 15.79650741 6 19 C7.97747122 19.36297936 7.97747122 19.36297936 10.125 19.1875 C11.40375 19.125625 12.6825 19.06375 14 19 C15.6498007 15.70039859 15.38258361 12.00872116 15.5625 8.375 C15.60568359 7.57320312 15.64886719 6.77140625 15.69335938 5.9453125 C15.79951457 3.9637489 15.90026855 1.98189729 16 0 C16.99 0 17.98 0 19 0 C19.08126109 2.72977064 19.14061663 5.4571017 19.1875 8.1875 C19.21263672 8.95642578 19.23777344 9.72535156 19.26367188 10.51757812 C19.32377188 15.18534511 19.04102023 18.20792877 16 22 C13.74015891 23.12992055 12.20273513 23.29799956 9.6875 23.4375 C8.92824219 23.49808594 8.16898437 23.55867187 7.38671875 23.62109375 C4.37206495 22.83659301 2.84027897 21.33310755 0.97045898 18.87817383 C-0.82333193 15.40656792 -0.52273949 11.94165539 -0.3125 8.125 C-0.28994141 7.34125 -0.26738281 6.5575 -0.24414062 5.75 C-0.18568018 3.8324974 -0.09601283 1.9159894 0 0 Z " fill="#D1B165" transform="translate(324,736)"/>
<path d="M0 0 C0.78503906 0.00644531 1.57007813 0.01289062 2.37890625 0.01953125 C4.4375 0.1875 4.4375 0.1875 6.4375 1.1875 C6.4375 2.1775 6.4375 3.1675 6.4375 4.1875 C2.8075 4.1875 -0.8225 4.1875 -4.5625 4.1875 C-4.5625 5.5075 -4.5625 6.8275 -4.5625 8.1875 C-3.78003906 8.46464844 -2.99757813 8.74179687 -2.19140625 9.02734375 C-1.17949219 9.38957031 -0.16757812 9.75179687 0.875 10.125 C1.88433594 10.48464844 2.89367187 10.84429688 3.93359375 11.21484375 C6.4375 12.1875 6.4375 12.1875 7.4375 13.1875 C8.01373479 19.41083572 8.01373479 19.41083572 6 22.125 C2.21706713 23.69353314 -1.52111299 23.76058803 -5.5625 23.1875 C-6.5525 22.5275 -7.5425 21.8675 -8.5625 21.1875 C-8.5625 20.1975 -8.5625 19.2075 -8.5625 18.1875 C-7.5725 18.5175 -6.5825 18.8475 -5.5625 19.1875 C-4.00131572 19.25490865 -2.4374748 19.27264456 -0.875 19.25 C-0.06675781 19.24097656 0.74148438 19.23195313 1.57421875 19.22265625 C2.18910156 19.21105469 2.80398438 19.19945312 3.4375 19.1875 C3.1075 17.5375 2.7775 15.8875 2.4375 14.1875 C1.81101562 13.99414062 1.18453125 13.80078125 0.5390625 13.6015625 C-0.27820313 13.34117187 -1.09546875 13.08078125 -1.9375 12.8125 C-3.15566406 12.42964844 -3.15566406 12.42964844 -4.3984375 12.0390625 C-6.5625 11.1875 -6.5625 11.1875 -8.5625 9.1875 C-8.375 5.6875 -8.375 5.6875 -7.5625 2.1875 C-4.404724 0.082316 -3.60852866 -0.06539344 0 0 Z " fill="#CEAF66" transform="translate(741.5625,735.8125)"/>
<path d="M0 0 C0.99 0 1.98 0 3 0 C3.04898437 1.20398438 3.09796875 2.40796875 3.1484375 3.6484375 C3.22346343 5.22398198 3.29901133 6.79950166 3.375 8.375 C3.4059375 9.1690625 3.436875 9.963125 3.46875 10.78125 C3.51816421 15.36667375 3.51816421 15.36667375 6 19 C8.97 19 11.94 19 15 19 C15.33 12.73 15.66 6.46 16 0 C16.99 0 17.98 0 19 0 C19.05404449 2.75026417 19.09369306 5.49946203 19.125 8.25 C19.15013672 9.41595703 19.15013672 9.41595703 19.17578125 10.60546875 C19.23902298 18.00475072 19.23902298 18.00475072 17 21 C13.31502204 23.45665197 10.28028214 23.70086491 6 23 C3.1899654 21.20636089 1.49059532 19.98119065 0 17 C-0.07194869 14.11629667 -0.09291708 11.25760336 -0.0625 8.375 C-0.05798828 7.57320312 -0.05347656 6.77140625 -0.04882812 5.9453125 C-0.03703168 3.96350994 -0.01909605 1.98174567 0 0 Z " fill="#DABB6E" transform="translate(403,736)"/>
<path d="M0 0 C0.66 0.33 1.32 0.66 2 1 C0.7934375 2.175625 0.7934375 2.175625 -0.4375 3.375 C-2.98690417 5.71982856 -2.98690417 5.71982856 -4 8 C-3.01 8.33 -2.02 8.66 -1 9 C-1.76030518 9.33733154 -2.52061035 9.67466309 -3.30395508 10.0222168 C-6.17994326 11.29851707 -9.05573247 12.57526443 -11.93139648 13.85229492 C-13.76596477 14.66683848 -15.60075298 15.48088663 -17.43554688 16.29492188 C-18.61826172 16.82021484 -19.80097656 17.34550781 -21.01953125 17.88671875 C-22.19080566 18.40540527 -23.36208008 18.9240918 -24.56884766 19.45849609 C-26.81244824 20.46647205 -29.04708578 21.49470466 -31.27099609 22.54541016 C-32.75140381 23.2441626 -32.75140381 23.2441626 -34.26171875 23.95703125 C-35.13143311 24.37573486 -36.00114746 24.79443848 -36.8972168 25.22583008 C-37.59113525 25.48130615 -38.28505371 25.73678223 -39 26 C-39.66 25.67 -40.32 25.34 -41 25 C-40.50411377 24.70456299 -40.00822754 24.40912598 -39.49731445 24.10473633 C-37.10129859 22.67578876 -34.7067907 21.24433632 -32.3125 19.8125 C-31.42578613 19.28309814 -30.53907227 18.75369629 -29.62548828 18.20825195 C-24.73943166 15.28047201 -19.88371409 12.313185 -15.06640625 9.2734375 C-14.11403076 8.67426514 -13.16165527 8.07509277 -12.18041992 7.45776367 C-10.32603137 6.28761561 -8.47583422 5.11079588 -6.63012695 3.92700195 C-5.79054443 3.3980835 -4.95096191 2.86916504 -4.0859375 2.32421875 C-3.3439209 1.85072998 -2.6019043 1.37724121 -1.83740234 0.8894043 C-1.23105957 0.59590088 -0.6247168 0.30239746 0 0 Z " fill="#A88642" transform="translate(413,339)"/>
<path d="M0 0 C0.33 0.99 0.66 1.98 1 3 C-2.96 3 -6.92 3 -11 3 C-10.67 4.65 -10.34 6.3 -10 8 C-7.77874162 9.40035495 -7.77874162 9.40035495 -5.0625 10.1875 C-0.15217391 11.84782609 -0.15217391 11.84782609 2 14 C2.4375 16.375 2.4375 16.375 2 19 C-0.11088992 21.44071647 -1.73001676 22.79629972 -4.97265625 23.31640625 C-8.76642048 23.42277347 -11.81428789 23.12380807 -15 21 C-14.505 19.515 -14.505 19.515 -14 18 C-13.01 18.33 -12.02 18.66 -11 19 C-9.60560336 19.06665376 -8.20830125 19.08538199 -6.8125 19.0625 C-5.554375 19.041875 -4.29625 19.02125 -3 19 C-2.67 17.68 -2.34 16.36 -2 15 C-2.69867187 14.72285156 -3.39734375 14.44570313 -4.1171875 14.16015625 C-5.02726563 13.79792969 -5.93734375 13.43570313 -6.875 13.0625 C-7.77992188 12.70285156 -8.68484375 12.34320312 -9.6171875 11.97265625 C-12 11 -12 11 -14 10 C-14.59878587 3.77262693 -14.59878587 3.77262693 -12.0625 0.5 C-7.80821851 -1.58372971 -4.53913108 -0.90980405 0 0 Z " fill="#DBBA6B" transform="translate(544,736)"/>
<path d="M0 0 C3.17538332 0.34021964 4.02276865 1.02466604 6.25 3.4375 C8 6 8 6 8 8 C10.64752004 5.42215154 12.94432065 3.08351902 15 0 C15.99 0 16.98 0 18 0 C16.34832443 3.5786304 14.21713508 6.74820188 12 10 C13.53926583 13.49833143 15.68607106 16.3821403 17.9765625 19.4140625 C19 21 19 21 19 23 C16.47021342 22.61784075 15.29145802 22.33574032 13.5859375 20.37109375 C13.18632812 19.73300781 12.78671875 19.09492187 12.375 18.4375 C11.21359192 16.53394697 11.21359192 16.53394697 10 15 C9.34 15 8.68 15 8 15 C6.41544134 16.78723941 6.41544134 16.78723941 4.875 19 C4.06675781 20.11375 4.06675781 20.11375 3.2421875 21.25 C2.83226562 21.8275 2.42234375 22.405 2 23 C1.01 22.67 0.02 22.34 -1 22 C-0.20722656 21.00419922 -0.20722656 21.00419922 0.6015625 19.98828125 C1.26929688 19.10527344 1.93703125 18.22226562 2.625 17.3125 C3.63433594 16.00732422 3.63433594 16.00732422 4.6640625 14.67578125 C6.32144861 12.08427611 6.32144861 12.08427611 5.34375 9.40625 C4.9003125 8.6121875 4.456875 7.818125 4 7 C3.64679688 6.33355469 3.29359375 5.66710937 2.9296875 4.98046875 C2.58164062 4.38878906 2.23359375 3.79710937 1.875 3.1875 C1.25625 2.135625 0.6375 1.08375 0 0 Z " fill="#DDBE71" transform="translate(427,736)"/>
<path d="M0 0 C0.66 0.33 1.32 0.66 2 1 C0.47005208 2.10677083 -1.05989583 3.21354167 -2.58984375 4.3203125 C-4.27671349 5.99806111 -4.27671349 5.99806111 -4.21484375 8.83203125 C-5.40361236 13.62850558 -8.58102061 15.03591395 -12.625 17.5625 C-14.0342139 18.47991641 -15.44307077 19.39788149 -16.8515625 20.31640625 C-17.54024414 20.75742676 -18.22892578 21.19844727 -18.93847656 21.65283203 C-22.03015058 23.67318462 -25.01119404 25.8309584 -28 28 C-22.8926167 16.67951124 -10.98083299 5.60401132 0 0 Z " fill="#EBD17C" transform="translate(553,531)"/>
<path d="M0 0 C4.47400851 1.43397709 7.50725665 3.89727489 10.875 7.0625 C11.65955566 7.7891687 11.65955566 7.7891687 12.45996094 8.53051758 C16.81371401 12.64665859 20.55763878 17.09099896 24 22 C23.67 22.66 23.34 23.32 23 24 C22.10539062 23.27554688 21.21078125 22.55109375 20.2890625 21.8046875 C13.46309136 16.32896045 6.70686204 11.20858595 -1 7 C-0.34 6.01 0.32 5.02 1 4 C0.69159401 1.84725052 0.69159401 1.84725052 0 0 Z " fill="#F0D482" transform="translate(475,535)"/>
<path d="M0 0 C11.46296696 6.45266352 22.74044408 13.19997773 34 20 C33.01 20.495 33.01 20.495 32 21 C29.86759366 20.20767958 27.77559239 19.30593892 25.70703125 18.359375 C25.08277756 18.07652649 24.45852386 17.79367798 23.81535339 17.5022583 C21.8109605 16.59218598 19.81171496 15.6713836 17.8125 14.75 C15.83008015 13.84536548 13.84667361 12.94292053 11.86320496 12.04058838 C10.04892122 11.21375263 8.23692135 10.38191093 6.42504883 9.54980469 C2.96807657 7.98555493 -0.50766583 6.48316414 -4 5 C-3.34 4.67 -2.68 4.34 -2 4 C-2 3.34 -2 2.68 -2 2 C-1.34 2 -0.68 2 0 2 C0 1.34 0 0.68 0 0 Z " fill="#C19B4A" transform="translate(618,344)"/>
<path d="M0 0 C8.21766784 -0.36254417 8.21766784 -0.36254417 11.5625 1.1875 C13 3 13 3 13.5 5.5 C13 8 13 8 11.5625 9.8125 C7.66280981 11.6196735 4.2730991 11.18851908 0 11 C0 7.37 0 3.74 0 0 Z " fill="#2A343C" transform="translate(479,738)"/>
<path d="M0 0 C8.24550898 -0.48502994 8.24550898 -0.48502994 11.625 1.6875 C13 4 13 4 12.9375 6.625 C12 9 12 9 9 11 C5.97670744 11.2610788 3.04123758 11.08815181 0 11 C0 7.37 0 3.74 0 0 Z " fill="#263038" transform="translate(353,738)"/>
<path d="M0 0 C0.99 0 1.98 0 3 0 C4.53515625 2.1875 4.53515625 2.1875 6.0625 5 C6.98862341 6.69671464 7.95676475 8.37266925 9 10 C9.66 10 10.32 10 11 10 C12.59395916 7.75116689 12.59395916 7.75116689 14.125 5 C14.93324219 3.6078125 14.93324219 3.6078125 15.7578125 2.1875 C16.16773438 1.465625 16.57765625 0.74375 17 0 C17.99 0.33 18.98 0.66 20 1 C19.43410156 1.83402344 18.86820313 2.66804687 18.28515625 3.52734375 C14.05810631 9.94531266 11 15.09313235 11 23 C10.01 23 9.02 23 8 23 C8.00902344 22.40574219 8.01804687 21.81148437 8.02734375 21.19921875 C7.77648249 14.18601044 5.51357041 9.94075164 1.49609375 4.25 C0 2 0 2 0 0 Z " fill="#D5B76F" transform="translate(589,736)"/>
<path d="M0 0 C3.78570414 1.26190138 4.21831571 2.54855815 6.1875 5.9375 C6.71730469 6.83339844 7.24710937 7.72929688 7.79296875 8.65234375 C9 11 9 11 9 13 C9.66 13 10.32 13 11 13 C11.37125 11.700625 11.37125 11.700625 11.75 10.375 C13.06778613 6.81697746 14.80186822 4.0773845 17 1 C17.99 1.33 18.98 1.66 20 2 C19.43410156 2.83402344 18.86820312 3.66804687 18.28515625 4.52734375 C14.05810631 10.94531266 11 16.09313235 11 24 C10.01 24 9.02 24 8 24 C7.979375 22.7625 7.95875 21.525 7.9375 20.25 C7.35444644 14.51056653 4.56349277 10.37855816 1.49609375 5.6015625 C0 3 0 3 0 0 Z " fill="#DDBC6B" transform="translate(274,735)"/>
<path d="M0 0 C1.796875 0.18359375 1.796875 0.18359375 4 1 C5.703125 3.28515625 5.703125 3.28515625 7.25 6.0625 C8.03117187 7.44115234 8.03117187 7.44115234 8.828125 8.84765625 C9.21484375 9.55792969 9.6015625 10.26820313 10 11 C10.98058352 9.54261898 11.95942132 8.08406325 12.9375 6.625 C13.48277344 5.81289063 14.02804687 5.00078125 14.58984375 4.1640625 C16.01093879 2.07280816 16.01093879 2.07280816 17 0 C17.99 0 18.98 0 20 0 C18.81191348 3.34824382 17.26964728 6.22642747 15.4375 9.25 C12.78356233 13.89439093 12.25286154 17.68990773 12 23 C11.01 23 10.02 23 9 23 C9 21.783125 9 20.56625 9 19.3125 C8.38629858 13.20470968 5.01485401 8.60559867 1.71484375 3.625 C0 1 0 1 0 0 Z " fill="#D3B767" transform="translate(497,736)"/>
<path d="M0 0 C0.66 0 1.32 0 2 0 C1.39009109 3.55780196 0.4216319 6.6828589 -1 10 C2.3 10 5.6 10 9 10 C9 9.34 9 8.68 9 8 C9.99 8.33 10.98 8.66 12 9 C12.94921875 11.06640625 12.94921875 11.06640625 13.6875 13.5625 C13.93886719 14.38878906 14.19023438 15.21507812 14.44921875 16.06640625 C14.63097656 16.70449219 14.81273437 17.34257813 15 18 C14.01 18 13.02 18 12 18 C11.34 16.35 10.68 14.7 10 13 C5.71 12.67 1.42 12.34 -3 12 C-3.66 13.98 -4.32 15.96 -5 18 C-5.99 18 -6.98 18 -8 18 C-6.10463724 11.48180123 -3.4821006 5.82185199 0 0 Z " fill="#D7B668" transform="translate(685,741)"/>
<path d="M0 0 C0.99 0 1.98 0 3 0 C3 6.6 3 13.2 3 20 C6.96 20 10.92 20 15 20 C15 20.99 15 21.98 15 23 C10.05 23 5.1 23 0 23 C0 15.41 0 7.82 0 0 Z " fill="#CFB46B" transform="translate(384,736)"/>
<path d="M0 0 C5.94 0 11.88 0 18 0 C18 0.66 18 1.32 18 2 C15.69 2 13.38 2 11 2 C11 8.93 11 15.86 11 23 C10.01 23 9.02 23 8 23 C8 16.07 8 9.14 8 2 C5.36 2 2.72 2 0 2 C0 1.34 0 0.68 0 0 Z " fill="#DBB76A" transform="translate(548,736)"/>
<path d="M0 0 C0.66 0 1.32 0 2 0 C2 0.99 2 1.98 2 3 C5.3 3 8.6 3 12 3 C12.33 2.01 12.66 1.02 13 0 C15.47859908 2.2008849 16.61210366 4.06372969 17.6875 7.1875 C17.93886719 7.90292969 18.19023438 8.61835937 18.44921875 9.35546875 C18.63097656 9.89816406 18.81273437 10.44085937 19 11 C17.125 10.75 17.125 10.75 15 10 C13.75 7.9375 13.75 7.9375 13 6 C11.06440687 5.86495862 9.126128 5.76798871 7.1875 5.6875 C6.10855469 5.62949219 5.02960937 5.57148437 3.91796875 5.51171875 C2.95503906 5.67285156 1.99210938 5.83398438 1 6 C-0.79763674 8.43976266 -0.79763674 8.43976266 -2 11 C-2.66 11 -3.32 11 -4 11 C-3.49357808 6.64477147 -2.61588503 3.55760365 0 0 Z " fill="#E3C573" transform="translate(571,748)"/>
<path d="M0 0 C3.12001504 1.68818449 5.39047471 3.78094941 7 7 C7.04022391 9.3329866 7.04320247 11.66706666 7 14 C6.34 14 5.68 14 5 14 C4.6596875 12.39125 4.6596875 12.39125 4.3125 10.75 C2.83962549 6.54178713 1.84023084 5.18194934 -2 3 C-5 2.25 -5 2.25 -8 3 C-10.68767578 5.43750025 -10.68767578 5.43750025 -13 8 C-13.99 8 -14.98 8 -16 8 C-13.36787668 -0.11571356 -7.91574426 -1.37123129 0 0 Z " fill="#DBB663" transform="translate(312,736)"/>
<path d="M0 0 C5.94 0 11.88 0 18 0 C18 0.66 18 1.32 18 2 C15.36 2 12.72 2 10 2 C10 8.93 10 15.86 10 23 C9.34 23 8.68 23 8 23 C8 16.07 8 9.14 8 2 C5.36 2 2.72 2 0 2 C0 1.34 0 0.68 0 0 Z " fill="#EEC66E" transform="translate(712,736)"/>
<path d="M0 0 C4.875 1.875 4.875 1.875 6 3 C6.07179964 4.51928038 6.08392007 6.04167482 6.0625 7.5625 C6.05347656 8.38878906 6.04445313 9.21507812 6.03515625 10.06640625 C6.01775391 11.02353516 6.01775391 11.02353516 6 12 C4.02 12.99 4.02 12.99 2 14 C3.65 16.97 5.3 19.94 7 23 C5.68 23 4.36 23 3 23 C-1.01806756 16.66849961 -1.01806756 16.66849961 -0.9375 13.6875 C0 12 0 12 3 10 C3.5 7.5 3.5 7.5 3 5 C2.01 4.34 1.02 3.68 0 3 C0 2.01 0 1.02 0 0 Z " fill="#E4C472" transform="translate(488,736)"/>
<path d="M0 0 C0.99 0 1.98 0 3 0 C3 7.59 3 15.18 3 23 C2.01 23 1.02 23 0 23 C0 15.41 0 7.82 0 0 Z " fill="#C8A965" transform="translate(705,736)"/>
<path d="M0 0 C0.99 0 1.98 0 3 0 C3.04898437 1.09699219 3.09796875 2.19398438 3.1484375 3.32421875 C3.22350591 4.77866925 3.29905197 6.23309516 3.375 7.6875 C3.4059375 8.40873047 3.436875 9.12996094 3.46875 9.87304688 C3.69335587 13.97210394 4.17740909 17.24368459 6 21 C5.01 21 4.02 21 3 21 C-0.47009109 16.89898326 -0.36595436 12.80776746 -0.1875 7.6875 C-0.17396484 6.94693359 -0.16042969 6.20636719 -0.14648438 5.44335938 C-0.11135979 3.62858925 -0.05755972 1.81419712 0 0 Z " fill="#D8B664" transform="translate(450,736)"/>
<path d="M0 0 C1.23102992 3.69308976 0.87175152 6.88050712 0.5625 10.6875 C0.51029297 11.38939453 0.45808594 12.09128906 0.40429688 12.81445312 C0.27492135 14.54338054 0.13817469 16.27175355 0 18 C-0.33 17.01 -0.66 16.02 -1 15 C-1.99 15.495 -1.99 15.495 -3 16 C-3.47597366 18.70599842 -3.84093629 21.33595404 -4.125 24.0625 C-4.21136719 24.82111328 -4.29773438 25.57972656 -4.38671875 26.36132812 C-4.59939517 28.23996986 -4.80075459 30.11988636 -5 32 C-5.33 32 -5.66 32 -6 32 C-6.71982432 21.44257661 -5.31598825 9.38679006 0 0 Z " fill="#8B6E3A" transform="translate(346,427)"/>
<path d="M0 0 C4.22043229 1.55801005 6.53136168 4.71879909 9.25 8.125 C9.93835938 8.96998047 9.93835938 8.96998047 10.640625 9.83203125 C11.76674953 11.21622599 12.88424385 12.60743411 14 14 C13.67 14.66 13.34 15.32 13 16 C8.38 12.37 3.76 8.74 -1 5 C-0.34 4.34 0.32 3.68 1 3 C0.67 2.01 0.34 1.02 0 0 Z " fill="#DFC778" transform="translate(485,543)"/>
<path d="M0 0 C0.66 0.33 1.32 0.66 2 1 C0.7934375 2.175625 0.7934375 2.175625 -0.4375 3.375 C-2.98690417 5.71982856 -2.98690417 5.71982856 -4 8 C-3.01 8.33 -2.02 8.66 -1 9 C-2.4096347 9.70180531 -3.82807641 10.38593958 -5.25 11.0625 C-6.03890625 11.44535156 -6.8278125 11.82820313 -7.640625 12.22265625 C-10.25993522 13.08564091 -11.44855176 12.93045933 -14 12 C-13.38125 11.773125 -12.7625 11.54625 -12.125 11.3125 C-9.78369654 10.18305178 -9.78369654 10.18305178 -9.25 7.6875 C-7.39294967 3.6948418 -3.9864294 1.74406286 0 0 Z " fill="#BF9948" transform="translate(413,339)"/>
<path d="M0 0 C0.66 0.33 1.32 0.66 2 1 C1.43410156 1.48210937 0.86820312 1.96421875 0.28515625 2.4609375 C-0.44832031 3.09257812 -1.18179687 3.72421875 -1.9375 4.375 C-2.66839844 5.00148438 -3.39929688 5.62796875 -4.15234375 6.2734375 C-6.08380906 7.87747714 -6.08380906 7.87747714 -7 10 C1.58 10 10.16 10 19 10 C19 10.33 19 10.66 19 11 C9.43 11 -0.14 11 -10 11 C-8.08774479 6.21936198 -7.74580612 5.37209134 -3.875 2.6875 C-3.15054687 2.17574219 -2.42609375 1.66398437 -1.6796875 1.13671875 C-0.84824219 0.57404297 -0.84824219 0.57404297 0 0 Z " fill="#E7BB5B" transform="translate(449,396)"/>
<path d="M0 0 C2.67901932 2.31881505 3.66204403 4.31814468 4.6875 7.6875 C5.06455078 8.89986328 5.06455078 8.89986328 5.44921875 10.13671875 C5.63097656 10.75160156 5.81273437 11.36648438 6 12 C5.01 12 4.02 12 3 12 C2.34 10.02 1.68 8.04 1 6 C-1.97851562 6.09765625 -1.97851562 6.09765625 -4.95703125 6.1953125 C-7 6 -7 6 -10 4 C-7.03 4 -4.06 4 -1 4 C-0.67 2.68 -0.34 1.36 0 0 Z " fill="#DBBA6E" transform="translate(636,747)"/>
<path d="M0 0 C0.66 0 1.32 0 2 0 C5 6.625 5 6.625 5 10 C2.03 10 -0.94 10 -4 10 C-2.68 6.7 -1.36 3.4 0 0 Z " fill="#202B37" transform="translate(577,740)"/>
<path d="M0 0 C3.78570414 1.26190138 4.21831571 2.54855815 6.1875 5.9375 C6.71730469 6.83339844 7.24710937 7.72929688 7.79296875 8.65234375 C9 11 9 11 9 13 C9.66 13.33 10.32 13.66 11 14 C10.34 14 9.68 14 9 14 C9 17.3 9 20.6 9 24 C8.67 24 8.34 24 8 24 C7.979375 22.7625 7.95875 21.525 7.9375 20.25 C7.35444644 14.51056653 4.56349277 10.37855816 1.49609375 5.6015625 C0 3 0 3 0 0 Z " fill="#BA9E5B" transform="translate(274,735)"/>
<path d="M0 0 C3.34905453 3.34905453 3.89470285 5.49378854 5 10 C2.03 10 -0.94 10 -4 10 C-2.68 6.7 -1.36 3.4 0 0 Z " fill="#1B2532" transform="translate(688,740)"/>
<path d="M0 0 C2 1 2 1 2.8515625 3.06640625 C3.10679687 3.89011719 3.36203125 4.71382812 3.625 5.5625 C3.88539063 6.38878906 4.14578125 7.21507812 4.4140625 8.06640625 C4.60742188 8.70449219 4.80078125 9.34257813 5 10 C2.03 10 -0.94 10 -4 10 C-2.8905928 6.51329166 -1.73662334 3.22515763 0 0 Z " fill="#1D2936" transform="translate(630,740)"/>
<path d="M0 0 C0.33 0 0.66 0 1 0 C1.33 4.29 1.66 8.58 2 13 C4.97 13.33 7.94 13.66 11 14 C11 14.33 11 14.66 11 15 C8.36 15 5.72 15 3 15 C3 17.64 3 20.28 3 23 C2.01 23 1.02 23 0 23 C0 15.41 0 7.82 0 0 Z " fill="#BFA562" transform="translate(350,736)"/>
<path d="M0 0 C0.33 0 0.66 0 1 0 C1 4.95 1 9.9 1 15 C0.67 15 0.34 15 0 15 C0 13.35 0 11.7 0 10 C-2.22237273 10.88202363 -2.22237273 10.88202363 -3.375 13.375 C-5.00850157 16.01373331 -6.43296314 17.31814826 -9 19 C-8.74476563 18.49984375 -8.48953125 17.9996875 -8.2265625 17.484375 C-6.55473463 14.09812493 -4.96734703 10.67419342 -3.375 7.25 C-2.88773438 6.20392578 -2.88773438 6.20392578 -2.390625 5.13671875 C-1.59325162 3.4247112 -0.79655814 1.71238701 0 0 Z " fill="#B08A40" transform="translate(684,487)"/>
<path d="M0 0 C0.33 0 0.66 0 1 0 C1 1.65 1 3.3 1 5 C1.66 5 2.32 5 3 5 C1.82191948 8.3529984 0.80593388 10.7552529 -2 13 C-4.75078884 13.91692961 -6.35948913 14.10886083 -9.1875 14.0625 C-11.0746875 14.0315625 -11.0746875 14.0315625 -13 14 C-12.34 13.01 -11.68 12.02 -11 11 C-8.66752239 10.66073053 -6.33414529 10.32759934 -4 10 C-2 9 -2 9 -1 7 C-0.26958147 3.38976901 -0.26958147 3.38976901 0 0 Z " fill="#C1A158" transform="translate(316,745)"/>
<path d="M0 0 C0.66 0.66 1.32 1.32 2 2 C3.65 1.34 5.3 0.68 7 0 C7 0.66 7 1.32 7 2 C5.0234375 3.5859375 5.0234375 3.5859375 2.375 5.375 C1.4675 5.99246094 0.56 6.60992188 -0.375 7.24609375 C-1.24125 7.82488281 -2.1075 8.40367187 -3 9 C-3.99 9.66708984 -3.99 9.66708984 -5 10.34765625 C-6.32867195 11.23876075 -7.66347982 12.12071041 -9 13 C-7.50923566 9.7173068 -5.61379679 7.06922559 -3.375 4.25 C-2.74335937 3.45078125 -2.11171875 2.6515625 -1.4609375 1.828125 C-0.97882812 1.22484375 -0.49671875 0.6215625 0 0 Z " fill="#E0C87A" transform="translate(534,546)"/>
<path d="M0 0 C0.66 0 1.32 0 2 0 C4.27678571 8.03571429 4.27678571 8.03571429 3 12 C3 11.34 3 10.68 3 10 C1.35 10.66 -0.3 11.32 -2 12 C-2.21278058 7.53160785 -1.59138085 4.17737474 0 0 Z " fill="#BE9440" transform="translate(343,442)"/>
<path d="M0 0 C3.63 0 7.26 0 11 0 C11 0.66 11 1.32 11 2 C8.03 2 5.06 2 2 2 C2 5.63 2 9.26 2 13 C1.01 13.495 1.01 13.495 0 14 C0 9.38 0 4.76 0 0 Z " fill="#ECC670" transform="translate(351,736)"/>
<path d="M0 0 C2.22955653 1.27015331 4.45865426 2.54110048 6.6875 3.8125 C7.31333984 4.16892578 7.93917969 4.52535156 8.58398438 4.89257812 C12.08115525 6.8883458 15.55626286 8.91268705 19 11 C17 12 17 12 15.12060547 11.37915039 C14.37697754 11.03875732 13.63334961 10.69836426 12.8671875 10.34765625 C12.06152344 9.98349609 11.25585938 9.61933594 10.42578125 9.24414062 C9.58402344 8.85419922 8.74226562 8.46425781 7.875 8.0625 C7.02550781 7.67642578 6.17601562 7.29035156 5.30078125 6.89257812 C3.19722296 5.93534092 1.09727268 4.97091277 -1 4 C-0.67 2.68 -0.34 1.36 0 0 Z " fill="#AC8644" transform="translate(633,353)"/>
<path d="M0 0 C0.99 0 1.98 0 3 0 C1.90301833 5.69139902 0.45946923 10.74567937 -2 16 C-2.33 16 -2.66 16 -3 16 C-3.37851209 10.06997733 -2.10575375 5.52760359 0 0 Z " fill="#D3B66E" transform="translate(673,736)"/>
<path d="M0 0 C0.33 0.99 0.66 1.98 1 3 C-2.96 3 -6.92 3 -11 3 C-11.33 3.66 -11.66 4.32 -12 5 C-12.66 4.34 -13.32 3.68 -14 3 C-9.47669209 -1.81513423 -6.01431461 -1.20548354 0 0 Z " fill="#E5C271" transform="translate(544,736)"/>
<path d="M0 0 C0.66 0.66 1.32 1.32 2 2 C4.44012949 2.24287489 4.44012949 2.24287489 7.125 2.125 C8.03507813 2.10695313 8.94515625 2.08890625 9.8828125 2.0703125 C10.58148437 2.04710937 11.28015625 2.02390625 12 2 C12 2.33 12 2.66 12 3 C10.02 3.33 8.04 3.66 6 4 C6 4.33 6 4.66 6 5 C4.35 5 2.7 5 1 5 C0.34 6.98 -0.32 8.96 -1 11 C-1.99 11 -2.98 11 -4 11 C-2.7874262 7.27566618 -1.49140021 3.62197194 0 0 Z " fill="#C3A562" transform="translate(623,748)"/>
<path d="M0 0 C0.99 0.33 1.98 0.66 3 1 C4.56118428 1.06740865 6.1250252 1.08514456 7.6875 1.0625 C8.49574219 1.05347656 9.30398438 1.04445313 10.13671875 1.03515625 C10.75160156 1.02355469 11.36648438 1.01195312 12 1 C12.33 1.99 12.66 2.98 13 4 C9.83013832 5.58493084 6.45967739 5.2940042 3 5 C0.5 4 0.5 4 -1 3 C-0.67 2.01 -0.34 1.02 0 0 Z " fill="#C4A766" transform="translate(530,754)"/>
<path d="M0 0 C0.99 0.33 1.98 0.66 3 1 C0.69 4.96 -1.62 8.92 -4 13 C-5.32 12.34 -6.64 11.68 -8 11 C-7.56042969 10.59136719 -7.12085938 10.18273437 -6.66796875 9.76171875 C-4.90002875 7.89440976 -3.64448292 6.00847184 -2.3125 3.8125 C-1.87550781 3.09707031 -1.43851563 2.38164063 -0.98828125 1.64453125 C-0.66214844 1.10183594 -0.33601562 0.55914063 0 0 Z " fill="#CEB268" transform="translate(606,736)"/>
<path d="M0 0 C2.93934596 3.91912795 3.99179996 6.29506648 5 11 C4.625 13.4375 4.625 13.4375 4 15 C3.01 15 2.02 15 1 15 C0.67 10.05 0.34 5.1 0 0 Z " fill="#A2813F" transform="translate(678,429)"/>
<path d="M0 0 C2.9719385 1.12451727 5.33440687 2.22293791 8 4 C8 4.99 8 5.98 8 7 C3.78087253 6.5205537 1.20336822 5.83374881 -2 3 C-1.34 3 -0.68 3 0 3 C0 2.01 0 1.02 0 0 Z " fill="#B79042" transform="translate(625,349)"/>
<path d="M0 0 C3 1 3 1 5 4 C5.33 4 5.66 4 6 4 C6 5.98 6 7.96 6 10 C4.125 9.8125 4.125 9.8125 2 9 C0.21715186 5.70173093 0 3.8225249 0 0 Z " fill="#D0B26B" transform="translate(648,749)"/>
<path d="M0 0 C0.33 0 0.66 0 1 0 C1 3.63 1 7.26 1 11 C-3.29 11 -7.58 11 -12 11 C-11.67 10.34 -11.34 9.68 -11 9 C-8.71484375 8.5859375 -8.71484375 8.5859375 -5.9375 8.375 C-4.55884766 8.26285156 -4.55884766 8.26285156 -3.15234375 8.1484375 C-2.08693359 8.07496094 -2.08693359 8.07496094 -1 8 C-0.67 5.36 -0.34 2.72 0 0 Z " fill="#AF9148" transform="translate(441,449)"/>
<path d="M0 0 C4.95 0.33 9.9 0.66 15 1 C15 1.33 15 1.66 15 2 C14.16855469 2.01417969 13.33710937 2.02835938 12.48046875 2.04296875 C11.39378906 2.09066406 10.30710937 2.13835938 9.1875 2.1875 C8.10855469 2.22230469 7.02960937 2.25710938 5.91796875 2.29296875 C2.78223377 2.70992666 2.78223377 2.70992666 1.23828125 5.55078125 C0.82964844 6.35902344 0.42101562 7.16726563 0 8 C-0.66 8 -1.32 8 -2 8 C-1.125 2.25 -1.125 2.25 0 0 Z " fill="#CCAF67" transform="translate(569,751)"/>
<path d="M0 0 C3.63 0 7.26 0 11 0 C11 0.66 11 1.32 11 2 C8.03 2 5.06 2 2 2 C2 3.65 2 5.3 2 7 C1.01 7.495 1.01 7.495 0 8 C0 5.36 0 2.72 0 0 Z " fill="#F1D17D" transform="translate(477,736)"/>
<path d="M0 0 C1.25393555 0.03383789 1.25393555 0.03383789 2.53320312 0.06835938 C4.58541149 0.1269939 6.63669202 0.21666785 8.6875 0.3125 C7.6975 1.3025 6.7075 2.2925 5.6875 3.3125 C5.3575 2.9825 5.0275 2.6525 4.6875 2.3125 C2.58833974 2.13391035 0.48127312 2.04451523 -1.625 2 C-2.77613281 1.96261719 -3.92726563 1.92523437 -5.11328125 1.88671875 C-8.88203943 2.38829951 -9.98232219 3.39546259 -12.3125 6.3125 C-12.9725 5.9825 -13.6325 5.6525 -14.3125 5.3125 C-9.96415271 -0.31112634 -6.61186303 -0.33920371 0 0 Z " fill="#CDD0D3" transform="translate(515.3125,654.6875)"/>
<path d="M0 0 C0.66 0 1.32 0 2 0 C2.226875 0.61875 2.45375 1.2375 2.6875 1.875 C4.37929835 4.61410209 5.99244161 5.05024472 9 6 C9 6.66 9 7.32 9 8 C2.25 7.25 2.25 7.25 0 5 C-0.125 2.375 -0.125 2.375 0 0 Z " fill="#D4B56A" transform="translate(733,740)"/>
<path d="M0 0 C0.66 0 1.32 0 2 0 C2.2475 0.61875 2.495 1.2375 2.75 1.875 C4.20628639 4.35068687 5.37812506 4.95125002 8 6 C8 6.66 8 7.32 8 8 C4.28400809 8.20086443 3.22791555 8.1519437 0 6 C-0.1875 2.875 -0.1875 2.875 0 0 Z " fill="#E5C577" transform="translate(530,740)"/>
<path d="M0 0 C3.71428571 4.95238095 3.71428571 4.95238095 4 8 C3.0625 10.25 3.0625 10.25 2 12 C1.34 12 0.68 12 0 12 C0 8.04 0 4.08 0 0 Z " fill="#A07F39" transform="translate(339,487)"/>
<path d="M0 0 C0.99 0 1.98 0 3 0 C1.34784004 3.57967992 -0.73124352 6.77982952 -3 10 C-3.33 10 -3.66 10 -4 10 C-4.39801392 6.5173782 -4.12373826 5.19200764 -2.1875 2.1875 C-1.465625 1.465625 -0.74375 0.74375 0 0 Z " fill="#D4B669" transform="translate(442,736)"/>
<path d="M0 0 C6.57142857 5 6.57142857 5 8 10 C6.65555841 9.09970429 5.32468562 8.17911978 4 7.25 C3.2575 6.73953125 2.515 6.2290625 1.75 5.703125 C1.1725 5.14109375 0.595 4.5790625 0 4 C0 2.68 0 1.36 0 0 Z " fill="#E4CD80" transform="translate(491,549)"/>
<path d="M0 0 C1.8125 0.1875 1.8125 0.1875 4 1 C5.8125 3.3125 5.8125 3.3125 7 6 C6.57421875 8.16796875 6.57421875 8.16796875 6 10 C4.99723227 8.52270825 3.99785546 7.04311423 3 5.5625 C2.443125 4.73878906 1.88625 3.91507813 1.3125 3.06640625 C0 1 0 1 0 0 Z " fill="#DCBB6D" transform="translate(497,736)"/>
<path d="M0 0 C3 2 3 2 3.9375 4.375 C5.13726803 7.33913277 6.64439802 8.87995822 9 11 C8.67 11.66 8.34 12.32 8 13 C5.03 9.7 2.06 6.4 -1 3 C-0.67 2.01 -0.34 1.02 0 0 Z " fill="#B88D36" transform="translate(368,456)"/>
<path d="M0 0 C4.39158329 1.4638611 4.87947433 3.97831338 7 8 C5.68 8 4.36 8 3 8 C1.02 4.535 1.02 4.535 -1 1 C-0.67 0.67 -0.34 0.34 0 0 Z " fill="#D1B263" transform="translate(362,751)"/>
<path d="M0 0 C3 1 3 1 4.75 3.3125 C6.14972335 6.32190521 5.95287489 6.98041673 5 10 C4.15801693 8.90241493 3.32669329 7.79664683 2.5 6.6875 C2.0359375 6.07261719 1.571875 5.45773437 1.09375 4.82421875 C0 3 0 3 0 0 Z " fill="#CDAE69" transform="translate(274,735)"/>
<path d="M0 0 C2.475 0.99 2.475 0.99 5 2 C5 2.99 5 3.98 5 5 C2.5 6.6875 2.5 6.6875 0 8 C0 5.33333333 0 2.66666667 0 0 Z " fill="#E9CD78" transform="translate(475,535)"/>
<path d="M0 0 C4 1 4 1 5.265625 2.62890625 C6.17708333 4.41927083 7.08854167 6.20963542 8 8 C6.68 8 5.36 8 4 8 C2.68 5.36 1.36 2.72 0 0 Z " fill="#D2B368" transform="translate(487,751)"/>
<path d="M0 0 C0.99 0.66 1.98 1.32 3 2 C2.01 5.3 1.02 8.6 0 12 C-2 9 -2 9 -1.7578125 6.73828125 C-1.44457031 5.53751953 -1.44457031 5.53751953 -1.125 4.3125 C-0.92132812 3.50425781 -0.71765625 2.69601562 -0.5078125 1.86328125 C-0.34023438 1.24839844 -0.17265625 0.63351562 0 0 Z " fill="#C1A763" transform="translate(655,744)"/>
<path d="M0 0 C0.99 0.33 1.98 0.66 3 1 C3.33 1.99 3.66 2.98 4 4 C3.01 5.485 3.01 5.485 2 7 C-0.3828125 7.29296875 -0.3828125 7.29296875 -3.125 7.1875 C-4.03507813 7.16042969 -4.94515625 7.13335938 -5.8828125 7.10546875 C-6.58148437 7.07066406 -7.28015625 7.03585937 -8 7 C-8 6.67 -8 6.34 -8 6 C-5.03 6 -2.06 6 1 6 C0.67 4.02 0.34 2.04 0 0 Z " fill="#C8AD67" transform="translate(581,744)"/>
<path d="M0 0 C0.66 0.33 1.32 0.66 2 1 C0.47005208 2.23697917 -1.05989583 3.47395833 -2.58984375 4.7109375 C-4.13266437 5.9666391 -4.13266437 5.9666391 -5 8 C-6.32 7.34 -7.64 6.68 -9 6 C-6.03 4.02 -3.06 2.04 0 0 Z " fill="#E1C977" transform="translate(553,531)"/>
<path d="M0 0 C1.051875 0.433125 1.051875 0.433125 2.125 0.875 C5.05452503 2.02133588 8.00921653 3.02625654 11 4 C11 4.33 11 4.66 11 5 C3.5340751 5.36717663 3.5340751 5.36717663 1 3.625 C0 2 0 2 0 0 Z " fill="#D8B665" transform="translate(298,753)"/>
<path d="M0 0 C2.46278801 2.46278801 2.99771255 4.70676982 4 8 C2.125 7.8125 2.125 7.8125 0 7 C-1.25 4.4375 -1.25 4.4375 -2 2 C-1.34 1.34 -0.68 0.68 0 0 Z " fill="#CEB269" transform="translate(586,751)"/>
<path d="M0 0 C2.50298434 2.93828597 3.46930939 5.17902761 4 9 C3.01 9 2.02 9 1 9 C-1.125 3.375 -1.125 3.375 0 0 Z " fill="#CEB065" transform="translate(696,750)"/>
<path d="M0 0 C0.66 0 1.32 0 2 0 C1.5205537 4.21912747 0.83374881 6.79663178 -2 10 C-2.17942163 6.05272412 -2.09350689 3.4019487 0 0 Z " fill="#DABA6B" transform="translate(626,742)"/>
<path d="M0 0 C4.19174654 1.04793663 5.21592961 1.91763635 8 5 C7.01 5.66 6.02 6.32 5 7 C3.35 4.69 1.7 2.38 0 0 Z " fill="#222B32" transform="translate(399,445)"/>
<path d="M0 0 C0.99 0.99 1.98 1.98 3 3 C-2.28 3 -7.56 3 -13 3 C-13 2.67 -13 2.34 -13 2 C-12.22914063 1.93941406 -11.45828125 1.87882812 -10.6640625 1.81640625 C-9.15972656 1.69072266 -9.15972656 1.69072266 -7.625 1.5625 C-6.62726562 1.48128906 -5.62953125 1.40007812 -4.6015625 1.31640625 C-2.02072387 1.15034374 -2.02072387 1.15034374 0 0 Z " fill="#DCB357" transform="translate(583,404)"/>
<path d="M0 0 C0.66 0.33 1.32 0.66 2 1 C0.71372289 2.17260611 -0.57919783 3.3379283 -1.875 4.5 C-2.59429687 5.1496875 -3.31359375 5.799375 -4.0546875 6.46875 C-6 8 -6 8 -8 8 C-6.49776416 3.79373966 -3.71449966 2.26099979 0 0 Z " fill="#C4A04B" transform="translate(449,396)"/>
<path d="M0 0 C0.66 0.33 1.32 0.66 2 1 C-0.87494471 4.98069267 -3.82117329 7.43571997 -8 10 C-6.34908222 5.70761377 -3.26245434 3.1206085 0 0 Z " fill="#AF8636" transform="translate(375,394)"/>
<path d="M0 0 C3.63 1.98 7.26 3.96 11 6 C10.01 6.495 10.01 6.495 9 7 C6.3984375 6.00390625 6.3984375 6.00390625 3.375 4.5625 C2.37210938 4.08941406 1.36921875 3.61632812 0.3359375 3.12890625 C-0.43492187 2.75636719 -1.20578125 2.38382812 -2 2 C-1.34 1.34 -0.68 0.68 0 0 Z " fill="#8E7144" transform="translate(641,358)"/>
<path d="M0 0 C1.5625 1.8125 1.5625 1.8125 3 4 C2.67 4.99 2.34 5.98 2 7 C1.34 7 0.68 7 0 7 C-0.66 5.02 -1.32 3.04 -2 1 C-1.34 0.67 -0.68 0.34 0 0 Z " fill="#C9A864" transform="translate(634,741)"/>
<path d="M0 0 C2.97 0 5.94 0 9 0 C6.63707344 2.52588702 5.33537489 3.88820837 2 5 C2.33 4.01 2.66 3.02 3 2 C2.01 1.34 1.02 0.68 0 0 Z " fill="#B3944A" transform="translate(404,380)"/>
<path d="M0 0 C3.3 0.99 6.6 1.98 10 3 C10 3.33 10 3.66 10 4 C7.03 4 4.06 4 1 4 C0.67 2.68 0.34 1.36 0 0 Z " fill="#D8BB71" transform="translate(733,754)"/>
<path d="M0 0 C2.97 0.99 5.94 1.98 9 3 C9 3.33 9 3.66 9 4 C1.25 4.125 1.25 4.125 -1 3 C-0.67 2.01 -0.34 1.02 0 0 Z " fill="#D8BA72" transform="translate(530,754)"/>
<path d="M0 0 C0.66 0 1.32 0 2 0 C3.76462683 3.08809695 4 4.23312136 4 8 C3.34 8 2.68 8 2 8 C0.74335022 5.09399739 0 3.20395416 0 0 Z " fill="#DAB76B" transform="translate(662,745)"/>
<path d="M0 0 C0.66 0.33 1.32 0.66 2 1 C2 2.65 2 4.3 2 6 C0.02 6.99 0.02 6.99 -2 8 C-1.34 5.36 -0.68 2.72 0 0 Z " fill="#2B343A" transform="translate(659,741)"/>
<path d="M0 0 C2.475 0.99 2.475 0.99 5 2 C5 3.32 5 4.64 5 6 C2.5 4.6875 2.5 4.6875 0 3 C0 2.01 0 1.02 0 0 Z " fill="#CCA758" transform="translate(310,736)"/>
<path d="M0 0 C2.4375 0.8125 2.4375 0.8125 5 2 C5.33 2.99 5.66 3.98 6 5 C5.01 5.33 4.02 5.66 3 6 C1.5 4.6875 1.5 4.6875 0 3 C0 2.01 0 1.02 0 0 Z " fill="#D3B160" transform="translate(362,736)"/>
<path d="M0 0 C2.97 0.33 5.94 0.66 9 1 C9.33 1.99 9.66 2.98 10 4 C8.35 3.67 6.7 3.34 5 3 C5 2.34 5 1.68 5 1 C3.35 1 1.7 1 0 1 C0 0.67 0 0.34 0 0 Z " fill="#B59E63" transform="translate(535,735)"/>
<path d="M0 0 C0.33 0.66 0.66 1.32 1 2 C-1.47812494 5.45167403 -2.79606135 7.23163306 -7 8 C-6.02133662 6.85373678 -5.04205413 5.70800212 -4.0625 4.5625 C-3.51722656 3.92441406 -2.97195313 3.28632813 -2.41015625 2.62890625 C-1.63204305 1.73008851 -0.84063472 0.84063472 0 0 Z " fill="#AF8535" transform="translate(674,506)"/>
<path d="M0 0 C2 3 2 3 2 6 C1.34 6 0.68 6 0 6 C-0.33 6.66 -0.66 7.32 -1 8 C-1.66 5.69 -2.32 3.38 -3 1 C-2.01 0.67 -1.02 0.34 0 0 Z " fill="#BBA365" transform="translate(662,739)"/>
<path d="M0 0 C0.33 0 0.66 0 1 0 C1.49230769 7.38461538 1.49230769 7.38461538 -1 10.5 C-1.66 10.995 -2.32 11.49 -3 12 C-2.67 10.35 -2.34 8.7 -2 7 C-1.34 7 -0.68 7 0 7 C0 4.69 0 2.38 0 0 Z " fill="#BB9946" transform="translate(602,445)"/>
<path d="M0 0 C-1.1875 1.5 -1.1875 1.5 -3 3 C-5.6875 3.1875 -5.6875 3.1875 -8 3 C-8 2.34 -8 1.68 -8 1 C-3.375 -1.125 -3.375 -1.125 0 0 Z " fill="#1B252F" transform="translate(441,337)"/>
<path d="M0 0 C2.875 -0.1875 2.875 -0.1875 6 0 C6.66 0.99 7.32 1.98 8 3 C5.36 3 2.72 3 0 3 C0 2.01 0 1.02 0 0 Z " fill="#C8AD6A" transform="translate(409,756)"/>
<path d="M0 0 C0.33 0 0.66 0 1 0 C1 1.98 1 3.96 1 6 C-0.32 5.67 -1.64 5.34 -3 5 C-3 4.01 -3 3.02 -3 2 C-2.01 2 -1.02 2 0 2 C0 1.34 0 0.68 0 0 Z " fill="#E5C774" transform="translate(653,753)"/>
<path d="M0 0 C2.475 0.99 2.475 0.99 5 2 C5 2.99 5 3.98 5 5 C2.525 4.01 2.525 4.01 0 3 C0 2.01 0 1.02 0 0 Z " fill="#DABB70" transform="translate(488,736)"/>
<path d="M0 0 C1.32 0.33 2.64 0.66 4 1 C4 1.99 4 2.98 4 4 C1.03 3.67 -1.94 3.34 -5 3 C-5 2.67 -5 2.34 -5 2 C-3.35 2 -1.7 2 0 2 C0 1.34 0 0.68 0 0 Z " fill="#B39859" transform="translate(744,736)"/>
</svg>
